<?xml version="1.0" encoding="UTF-8"?> <svg xmlns="http://www.w3.org/2000/svg" width="573" height="124" viewBox="0 0 573 124" fill="none"> <path d="M86.6087 3.39743H156.833C184.184 3.39743 199.954 16.9496 199.954 42.0826C199.954 66.9692 183.938 81.2606 156.833 81.2606H115.438V123.974H86.6087L86.6087 3.39743ZM115.438 28.5305V56.3739H154.369C165.457 56.3739 170.878 50.9531 170.878 42.5754C170.878 33.7049 165.704 28.7769 154.369 28.7769H115.438V28.5305Z" fill="white"></path> <path d="M364.285 28.5305H318.701V3.39743H438.452V28.5305H392.868V123.974H364.285V28.5305Z" fill="white"></path> <path d="M456.254 3.39743H485.083V50.7067H543.727V3.39743H572.31V123.974H543.727V76.0861H485.083V123.974H456.254V3.39743Z" fill="white"></path> <path fill-rule="evenodd" clip-rule="evenodd" d="M260.656 -1.26793e-05L188.139 123.999L333.174 123.999L260.656 -1.26793e-05ZM260.656 50.441L232.53 98.5349L288.783 98.5349L260.656 50.441Z" fill="white"></path> <path d="M29.3077 124V38.2833L0 63.8089V31.8269L32.3147 3.39548H57.3839V124H29.3077Z" fill="white"></path> </svg> 