<?xml version="1.0" encoding="UTF-8"?> <svg xmlns="http://www.w3.org/2000/svg" width="188" height="188" viewBox="0 0 188 188" fill="none"> <path d="M150.95 43.3913C140.531 38.5347 129.251 35.0097 117.501 32.973C117.398 32.9697 117.296 32.9891 117.201 33.0297C117.106 33.0703 117.022 33.1311 116.953 33.208C115.543 35.793 113.898 39.1613 112.801 41.7463C100.338 39.8663 87.6641 39.8663 75.2012 41.7463C74.1046 39.083 72.4596 35.793 70.9712 33.208C70.8929 33.0514 70.6579 32.973 70.4229 32.973C58.6729 35.0097 47.4712 38.5347 36.9746 43.3913C36.8962 43.3913 36.8179 43.4697 36.7396 43.548C15.4329 75.4297 9.55791 106.45 12.4562 137.156C12.4562 137.313 12.5346 137.47 12.6912 137.548C26.7912 147.888 40.3429 154.155 53.7379 158.306C53.9729 158.385 54.2079 158.306 54.2862 158.15C57.4196 153.841 60.2396 149.298 62.6679 144.52C62.8246 144.206 62.6679 143.893 62.3546 143.815C57.8896 142.091 53.6596 140.055 49.5079 137.705C49.1946 137.548 49.1946 137.078 49.4296 136.843C50.2912 136.216 51.1529 135.511 52.0146 134.885C52.1712 134.728 52.4062 134.728 52.5629 134.806C79.5096 147.105 108.571 147.105 135.205 134.806C135.361 134.728 135.596 134.728 135.753 134.885C136.615 135.59 137.476 136.216 138.338 136.921C138.651 137.156 138.651 137.626 138.26 137.783C134.186 140.211 129.878 142.17 125.413 143.893C125.1 143.971 125.021 144.363 125.1 144.598C127.606 149.376 130.426 153.92 133.481 158.228C133.716 158.306 133.951 158.385 134.186 158.306C147.66 154.155 161.211 147.888 175.311 137.548C175.468 137.47 175.546 137.313 175.546 137.156C178.993 101.671 169.828 70.8863 151.263 43.548C151.185 43.4697 151.106 43.3913 150.95 43.3913ZM66.7412 118.435C58.6729 118.435 51.9362 110.993 51.9362 101.828C51.9362 92.663 58.5162 85.2214 66.7412 85.2214C75.0446 85.2214 81.6246 92.7413 81.5462 101.828C81.5462 110.993 74.9662 118.435 66.7412 118.435ZM121.34 118.435C113.271 118.435 106.535 110.993 106.535 101.828C106.535 92.663 113.115 85.2214 121.34 85.2214C129.643 85.2214 136.223 92.7413 136.145 101.828C136.145 110.993 129.643 118.435 121.34 118.435Z" fill="#6E6E6E"></path> </svg> 