<?xml version="1.0" encoding="UTF-8"?> <svg xmlns="http://www.w3.org/2000/svg" width="2500" height="542" viewBox="0 0 2500 542" fill="none"> <mask id="mask0_459_1649" style="mask-type:alpha" maskUnits="userSpaceOnUse" x="0" y="0" width="2500" height="542"> <path d="M378.344 14.8369H685.102C804.576 14.8369 873.462 74.0358 873.462 183.823C873.462 292.534 803.5 354.962 685.102 354.962H504.276V541.543H378.344L378.344 14.8369ZM504.276 124.624V246.251H674.338C722.774 246.251 746.453 222.571 746.453 185.976C746.453 147.227 723.85 125.7 674.338 125.7H504.276V124.624Z" fill="white"></path> <path d="M1591.3 124.624H1392.17V14.8369H1915.27V124.624H1716.15V541.543H1591.3V124.624Z" fill="white"></path> <path d="M1993.04 14.8369H2118.97V221.495H2375.14V14.8369H2500V541.543H2375.14V332.358H2118.97V541.543H1993.04V14.8369Z" fill="white"></path> <path fill-rule="evenodd" clip-rule="evenodd" d="M1138.6 -5.53863e-05L821.828 541.657L1455.37 541.657L1138.6 -5.53863e-05ZM1138.6 220.338L1015.74 430.424L1261.46 430.424L1138.6 220.338Z" fill="white"></path> <path d="M128.023 541.656V167.228L0 278.729V139.024L141.158 14.8291H250.667V541.656H128.023Z" fill="black"></path> </mask> <g mask="url(#mask0_459_1649)"> <g filter="url(#filter0_f_459_1649)"> <circle cx="-15.9895" cy="137.314" r="598.409" fill="#61FE97"></circle> </g> <g filter="url(#filter1_f_459_1649)"> <ellipse cx="1183.41" cy="245.157" rx="932.203" ry="693.099" fill="#026CE9"></ellipse> </g> <g filter="url(#filter2_f_459_1649)"> <circle cx="2201.31" cy="203.73" r="612.325" fill="#49F1FC"></circle> </g> </g> <defs> <filter id="filter0_f_459_1649" x="-1414.4" y="-1261.09" width="2796.82" height="2796.82" filterUnits="userSpaceOnUse" color-interpolation-filters="sRGB"> <feFlood flood-opacity="0" result="BackgroundImageFix"></feFlood> <feBlend mode="normal" in="SourceGraphic" in2="BackgroundImageFix" result="shape"></feBlend> <feGaussianBlur stdDeviation="100" result="effect1_foregroundBlur_459_1649"></feGaussianBlur> </filter> <filter id="filter1_f_459_1649" x="-548.789" y="-1247.94" width="3464.41" height="2986.2" filterUnits="userSpaceOnUse" color-interpolation-filters="sRGB"> <feFlood flood-opacity="0" result="BackgroundImageFix"></feFlood> <feBlend mode="normal" in="SourceGraphic" in2="BackgroundImageFix" result="shape"></feBlend> <feGaussianBlur stdDeviation="100" result="effect1_foregroundBlur_459_1649"></feGaussianBlur> </filter> <filter id="filter2_f_459_1649" x="788.984" y="-1208.6" width="2824.65" height="2824.65" filterUnits="userSpaceOnUse" color-interpolation-filters="sRGB"> <feFlood flood-opacity="0" result="BackgroundImageFix"></feFlood> <feBlend mode="normal" in="SourceGraphic" in2="BackgroundImageFix" result="shape"></feBlend> <feGaussianBlur stdDeviation="100" result="effect1_foregroundBlur_459_1649"></feGaussianBlur> </filter> </defs> </svg> 