<?xml version="1.0" encoding="UTF-8"?> <svg xmlns="http://www.w3.org/2000/svg" width="188" height="188" viewBox="0 0 188 188" fill="none"> <path d="M165.226 43.1163C166.455 41.939 166.836 40.1474 166.189 38.5844C165.542 37.022 163.998 36 162.281 36H120.11C117.78 36 115.891 37.8566 115.891 40.1466V60.0908L100.104 100.319L71.1492 38.4147C70.4609 36.9432 68.9636 36.0003 67.316 36.0003H27.8204C26.1908 36.0003 24.7073 36.9227 24.0086 38.3696C23.3106 39.8165 23.5223 41.5296 24.5531 42.77L42.4074 64.255V117.33L23.3916 141.304C22.4004 142.554 22.2204 144.249 22.9281 145.673C23.6357 147.097 25.1066 148 26.719 148H66.5336C68.1457 148 69.6169 147.097 70.3245 145.673C71.0322 144.249 70.8522 142.554 69.861 141.304L50.8455 117.33V80.4681L83.7626 145.696C84.477 147.112 85.9443 148 87.5412 148C87.6059 148 87.6715 147.998 87.7367 147.995C89.4079 147.92 90.8757 146.88 91.4782 145.345L115.892 83.1352V126.996L104.544 141.304C103.553 142.553 103.373 144.249 104.08 145.673C104.788 147.097 106.259 148 107.871 148H160.545C162.157 148 163.629 147.097 164.336 145.673C165.044 144.249 164.864 142.553 163.872 141.304L152.524 126.996V55.2849L165.226 43.1163Z" fill="#6E6E6E"></path> </svg> 