<?xml version="1.0" encoding="UTF-8"?> <svg xmlns="http://www.w3.org/2000/svg" width="144" height="31" viewBox="0 0 144 31" fill="none"> <path d="M21.6523 0.849365H39.2086C46.0464 0.849365 49.9888 4.23742 49.9888 10.5207C49.9888 16.7424 45.9848 20.3153 39.2086 20.3153H28.8597V30.9937H21.6523L21.6523 0.849365ZM28.8597 7.13267V14.0936H38.5926C41.3647 14.0936 42.7199 12.7384 42.7199 10.6439C42.7199 8.4263 41.4263 7.19428 38.5926 7.19428H28.8597V7.13267Z" fill="white"></path> <path d="M91.072 7.13267H79.6758V0.849365H109.614V7.13267H98.2177V30.9937H91.072V7.13267Z" fill="white"></path> <path d="M114.064 0.849365H121.272V12.6768H135.933V0.849365H143.079V30.9937H135.933V19.0217H121.272V30.9937H114.064V0.849365Z" fill="white"></path> <path fill-rule="evenodd" clip-rule="evenodd" d="M65.1646 -3.16985e-06L47.0352 31L83.2941 31L65.1646 -3.16985e-06ZM65.1646 12.6103L58.133 24.6339L72.1963 24.6339L65.1646 12.6103Z" fill="white"></path> <path d="M7.32698 31.0001V9.57091L0 15.9523V7.95678L8.07873 0.848877H14.3461V31.0001H7.32698Z" fill="white"></path> </svg> 