<?xml version="1.0" encoding="UTF-8"?> <svg xmlns="http://www.w3.org/2000/svg" width="188" height="188" viewBox="0 0 188 188" fill="none"> <path d="M175.936 48.6393C169.904 51.381 163.402 53.1827 156.666 54.0443C163.559 49.8927 168.886 43.3127 171.393 35.401C164.891 39.3177 157.684 42.0593 150.086 43.626C143.897 36.8893 135.202 32.9727 125.333 32.9727C106.924 32.9727 91.8842 48.0127 91.8842 66.5777C91.8842 69.241 92.1975 71.826 92.7458 74.2543C64.8592 72.8443 40.0275 59.4493 23.4992 39.161C20.6008 44.096 18.9558 49.8927 18.9558 56.0027C18.9558 67.6743 24.8308 78.0143 33.9175 83.8893C28.3558 83.8893 23.1858 82.3227 18.6425 79.9727V80.2077C18.6425 96.501 30.2358 110.131 45.5892 113.186C40.6599 114.535 35.4849 114.723 30.4708 113.734C32.5984 120.412 36.7652 126.255 42.3855 130.442C48.0057 134.629 54.7968 136.95 61.8042 137.078C49.9259 146.481 35.2021 151.564 20.0525 151.491C17.3892 151.491 14.7258 151.334 12.0625 151.021C26.9458 160.578 44.6492 166.139 63.6058 166.139C125.333 166.139 159.251 114.909 159.251 70.4943C159.251 69.006 159.251 67.596 159.173 66.1077C165.752 61.4077 171.392 55.4543 175.936 48.6393Z" fill="#6E6E6E"></path> </svg> 